<svg width="1000" height="1000" viewBox="0 0 1000 1000" fill="none" xmlns="http://www.w3.org/2000/svg">
<rect width="1000" height="1000" rx="500" fill="#3E63DD"/>
<path d="M492.718 850C442.88 850 396.926 841.586 354.854 824.757C313.43 807.282 277.184 783.01 246.117 751.942C215.696 720.227 192.071 683.01 175.243 640.291C158.414 596.926 150 549.676 150 498.544C150 448.706 158.738 402.751 176.214 360.68C193.689 317.961 218.285 281.068 250 250C281.715 218.285 318.932 193.689 361.65 176.214C404.369 158.738 450.647 150 500.485 150C532.848 150 564.563 154.531 595.631 163.592C627.346 172.006 656.149 184.628 682.039 201.456C708.576 218.285 731.23 238.35 750 261.65L658.738 362.621C643.204 347.087 627.023 333.819 610.194 322.816C594.013 311.165 576.537 302.427 557.767 296.602C539.644 290.129 520.227 286.893 499.515 286.893C471.683 286.893 445.469 292.071 420.874 302.427C396.926 312.783 375.89 327.346 357.767 346.117C339.644 364.239 325.081 386.57 314.078 413.107C303.722 438.997 298.544 467.799 298.544 499.515C298.544 531.877 303.722 561.327 314.078 587.864C324.434 613.754 338.997 636.084 357.767 654.854C376.537 672.977 398.867 687.217 424.757 697.573C451.295 707.282 480.421 712.136 512.136 712.136C532.848 712.136 552.913 709.223 572.33 703.398C591.748 697.573 609.547 689.482 625.728 679.126C642.557 668.77 657.443 656.796 670.388 643.204L741.262 756.796C725.728 774.272 704.693 790.129 678.155 804.369C652.265 818.608 623.139 829.935 590.777 838.349C558.414 846.116 525.728 850 492.718 850Z" fill="#FCFCFD"/>
<path d="M759.351 610C776.681 610 792.233 605.778 806.008 597.333C819.784 588.444 830.448 576.444 838.002 561.333C846.001 545.778 850 528.444 850 509.333C850 489.778 846.001 472.444 838.002 457.333C830.448 441.778 819.784 429.778 806.008 421.333C792.233 412.444 776.681 408 759.351 408C741.576 408 725.802 412.444 712.027 421.333C698.251 430.222 687.365 442.222 679.366 457.333C671.368 472.444 667.591 489.778 668.035 509.333C667.591 528.444 671.368 545.778 679.366 561.333C687.365 576.444 698.251 588.444 712.027 597.333C725.802 605.778 741.576 610 759.351 610Z" fill="#FCFCFD"/>
</svg>
