<svg width="531" height="181" viewBox="0 0 531 181" fill="none" xmlns="http://www.w3.org/2000/svg">
<path d="M88.5 180.5C75.6667 180.5 63.8333 178.333 53 174C42.3333 169.5 33 163.25 25 155.25C17.1667 147.083 11.0833 137.5 6.75 126.5C2.41667 115.333 0.25 103.167 0.25 90C0.25 77.1667 2.5 65.3333 7 54.5C11.5 43.5 17.8333 34 26 26C34.1667 17.8333 43.75 11.5 54.75 7C65.75 2.49999 77.6667 0.249994 90.5 0.249994C98.8333 0.249994 107 1.41666 115 3.74999C123.167 5.91666 130.583 9.16666 137.25 13.5C144.083 17.8333 149.917 23 154.75 29L131.25 55C127.25 51 123.083 47.5833 118.75 44.75C114.583 41.75 110.083 39.5 105.25 38C100.583 36.3333 95.5833 35.5 90.25 35.5C83.0833 35.5 76.3333 36.8333 70 39.5C63.8333 42.1667 58.4167 45.9167 53.75 50.75C49.0833 55.4167 45.3333 61.1667 42.5 68C39.8333 74.6667 38.5 82.0833 38.5 90.25C38.5 98.5833 39.8333 106.167 42.5 113C45.1667 119.667 48.9167 125.417 53.75 130.25C58.5833 134.917 64.3333 138.583 71 141.25C77.8333 143.75 85.3333 145 93.5 145C98.8333 145 104 144.25 109 142.75C114 141.25 118.583 139.167 122.75 136.5C127.083 133.833 130.917 130.75 134.25 127.25L152.5 156.5C148.5 161 143.083 165.083 136.25 168.75C129.583 172.417 122.083 175.333 113.75 177.5C105.417 179.5 97 180.5 88.5 180.5ZM228.113 180.5C214.613 180.5 202.53 177.583 191.863 171.75C181.363 165.75 173.03 157.583 166.863 147.25C160.863 136.917 157.863 125.083 157.863 111.75C157.863 98.4167 160.863 86.6667 166.863 76.5C173.03 66.1667 181.363 58 191.863 52C202.53 46 214.613 43 228.113 43C241.447 43 253.363 46 263.863 52C274.53 58 282.863 66.1667 288.863 76.5C294.863 86.6667 297.863 98.4167 297.863 111.75C297.863 125.083 294.863 136.917 288.863 147.25C282.863 157.583 274.53 165.75 263.863 171.75C253.363 177.583 241.447 180.5 228.113 180.5ZM228.113 149.5C234.613 149.5 240.447 147.917 245.613 144.75C250.78 141.417 254.78 136.917 257.613 131.25C260.613 125.417 262.113 118.917 262.113 111.75C262.113 104.417 260.613 97.9167 257.613 92.25C254.78 86.4167 250.78 81.9167 245.613 78.75C240.447 75.4167 234.613 73.75 228.113 73.75C221.447 73.75 215.53 75.4167 210.363 78.75C205.197 82.0833 201.113 86.5833 198.113 92.25C195.113 97.9167 193.697 104.417 193.863 111.75C193.697 118.917 195.113 125.417 198.113 131.25C201.113 136.917 205.197 141.417 210.363 144.75C215.53 147.917 221.447 149.5 228.113 149.5ZM312.072 178V45.75H346.072L347.072 72.75L340.072 75.75C341.906 69.75 345.156 64.3333 349.822 59.5C354.656 54.5 360.406 50.5 367.072 47.5C373.739 44.5 380.739 43 388.072 43C398.072 43 406.406 45 413.072 49C419.906 53 424.989 59.0833 428.322 67.25C431.822 75.25 433.572 85.1667 433.572 97V178H398.072V99.75C398.072 93.75 397.239 88.75 395.572 84.75C393.906 80.75 391.322 77.8333 387.822 76C384.489 74 380.322 73.1667 375.322 73.5C371.322 73.5 367.572 74.1667 364.072 75.5C360.739 76.6667 357.822 78.4167 355.322 80.75C352.989 83.0833 351.072 85.75 349.572 88.75C348.239 91.75 347.572 95 347.572 98.5V178H330.072C326.239 178 322.822 178 319.822 178C316.822 178 314.239 178 312.072 178ZM467.84 178V12.25H503.34V178H467.84ZM443.09 77.5V45.75H530.34V77.5H443.09Z" fill="#3E63DD"/>
</svg>
