<svg width="586" height="181" viewBox="0 0 586 181" fill="none" xmlns="http://www.w3.org/2000/svg">
<path d="M208 181C194.5 181 182.417 178.083 171.75 172.25C164.115 167.887 157.625 162.379 152.282 155.724C150.276 153.228 148.433 150.569 146.75 147.75C140.75 137.417 137.75 125.583 137.75 112.25C137.75 110.383 137.809 108.548 137.926 106.743C138.222 102.21 138.888 97.8724 139.926 93.7308C141.425 87.7448 143.7 82.1678 146.75 77C152.748 66.9495 160.795 58.9487 170.893 52.9976C171.177 52.8301 171.463 52.6642 171.75 52.5C182.417 46.5 194.5 43.5 208 43.5C221.333 43.5 233.25 46.5 243.75 52.5C254.417 58.5 262.75 66.6667 268.75 77C274.75 87.1667 277.75 98.9167 277.75 112.25C277.75 125.583 274.75 137.417 268.75 147.75C262.75 158.083 254.417 166.25 243.75 172.25C233.25 178.083 221.333 181 208 181ZM208 150C214.5 150 220.333 148.417 225.5 145.25C230.667 141.917 234.667 137.417 237.5 131.75C240.5 125.917 242 119.417 242 112.25C242 104.917 240.5 98.4167 237.5 92.75C234.667 86.9167 230.667 82.4167 225.5 79.25C220.333 75.9167 214.5 74.25 208 74.25C201.333 74.25 195.417 75.9167 190.25 79.25C185.083 82.5833 181 87.0833 178 92.75C177.992 92.7643 177.985 92.7786 177.977 92.7929C174.993 98.4495 173.584 104.935 173.75 112.25C173.696 114.559 173.807 116.799 174.082 118.97C174.661 123.536 175.967 127.796 178 131.75C181 137.417 185.083 141.917 190.25 145.25C195.417 148.417 201.333 150 208 150Z" fill="#3E63DD"/>
<path fill-rule="evenodd" clip-rule="evenodd" d="M544.574 130.153L542.61 107.431C542.439 105.453 543.839 103.664 545.822 103.564C547.06 103.502 548.3 103.502 549.537 103.564C551.52 103.664 552.921 105.453 552.75 107.431L550.784 130.166C550.709 131.039 551.217 131.856 552.033 132.175C552.849 132.493 553.776 132.236 554.312 131.543L567.914 113.95C569.169 112.327 571.51 112 573.02 113.389C573.831 114.136 574.609 114.918 575.352 115.734C576.727 117.246 576.396 119.575 574.779 120.826L557.199 134.423C556.507 134.958 556.25 135.886 556.568 136.702C556.887 137.518 557.705 138.026 558.577 137.95L581.265 135.984C583.244 135.813 585.034 137.214 585.133 139.198C585.195 140.44 585.195 141.684 585.133 142.925C585.034 144.909 583.244 146.31 581.265 146.139L558.564 144.172C557.692 144.096 556.874 144.604 556.555 145.419C556.236 146.234 556.493 147.162 557.184 147.698L574.767 161.322C576.386 162.577 576.713 164.913 575.328 166.422C574.583 167.235 573.801 168.014 572.987 168.758C571.475 170.138 569.14 169.806 567.89 168.185L554.314 150.595C553.778 149.9 552.847 149.642 552.03 149.963C551.213 150.284 550.706 151.106 550.786 151.98L552.85 174.523C553.031 176.497 551.644 178.291 549.666 178.426C548.396 178.513 547.124 178.54 545.86 178.5C543.863 178.437 542.441 176.642 542.613 174.651L544.574 151.968C544.65 151.096 544.142 150.278 543.326 149.96C542.51 149.641 541.583 149.898 541.047 150.591L527.446 168.175C526.191 169.797 523.85 170.124 522.341 168.735C521.529 167.988 520.751 167.205 520.008 166.389C518.633 164.877 518.964 162.548 520.581 161.297L538.16 147.7C538.853 147.165 539.11 146.237 538.791 145.421C538.473 144.606 537.655 144.097 536.782 144.173L514.094 146.139C512.116 146.31 510.326 144.909 510.227 142.925C510.164 141.684 510.164 140.44 510.227 139.198C510.326 137.214 512.116 135.813 514.094 135.984L536.796 137.952C537.668 138.027 538.486 137.519 538.804 136.704C539.123 135.889 538.867 134.961 538.175 134.425L520.592 120.801C518.973 119.547 518.647 117.21 520.031 115.701C520.777 114.888 521.558 114.109 522.373 113.366C523.885 111.986 526.219 112.317 527.47 113.938L541.045 131.529C541.581 132.222 542.509 132.48 543.325 132.162C544.141 131.843 544.65 131.025 544.574 130.153Z" fill="#3E63DD"/>
<path d="M447.727 19.75C447.727 15.884 450.861 12.75 454.727 12.75H476.227C480.093 12.75 483.227 15.884 483.227 19.75V39.25C483.227 43.116 486.361 46.25 490.227 46.25H503.227C507.093 46.25 510.227 49.384 510.227 53.25V71C510.227 74.866 507.093 78 503.227 78H490.227C486.361 78 483.227 81.134 483.227 85V171.5C483.227 175.366 480.093 178.5 476.227 178.5H454.727C450.861 178.5 447.727 175.366 447.727 171.5V85C447.727 81.134 444.593 78 440.727 78H429.977C426.111 78 422.977 74.866 422.977 71V53.25C422.977 49.384 426.111 46.25 429.977 46.25H440.727C444.593 46.25 447.727 43.116 447.727 39.25V19.75Z" fill="#3E63DD"/>
<path d="M291.959 178.5V53.25C291.959 49.384 295.093 46.25 298.959 46.25H322.168C324.616 46.25 326.601 48.2346 326.601 50.6828V58.8347C326.601 60.3849 328.632 61.1152 329.709 60C334.542 55 340.292 51 346.959 48C353.626 45 360.626 43.5 367.959 43.5C377.959 43.5 386.292 45.5 392.959 49.5C399.792 53.5 404.876 59.5833 408.209 67.75C411.709 75.75 413.459 85.6667 413.459 97.5V171.5C413.459 175.366 410.325 178.5 406.459 178.5H384.959C381.093 178.5 377.959 175.366 377.959 171.5V100.25C377.959 94.25 377.126 89.25 375.459 85.25C373.792 81.25 371.209 78.3333 367.709 76.5C364.376 74.5 360.209 73.6667 355.209 74C351.209 74 347.459 74.6667 343.959 76C340.626 77.1667 337.709 78.9167 335.209 81.25C332.876 83.5833 330.959 86.25 329.459 89.25C328.126 92.25 327.459 95.5 327.459 99V171.5C327.459 175.366 324.325 178.5 320.459 178.5H309.959H299.709H291.959Z" fill="#3E63DD"/>
<path fill-rule="evenodd" clip-rule="evenodd" d="M53.5 174.25C64.3333 178.75 76.1667 181 89 181C102 181 113.833 178.75 124.5 174.25C124.543 174.232 124.586 174.214 124.629 174.196C128.653 172.518 129.699 167.477 127.318 163.825C126.621 162.755 125.942 161.667 125.282 160.561L125.205 160.433L125.13 160.303C122.321 155.464 120.012 150.44 118.181 145.256C116.932 141.717 112.709 140.044 109.25 141.5C103.083 144.167 96.3333 145.5 89 145.5C81.6667 145.5 74.9167 144.167 68.75 141.5C62.5833 138.833 57.1667 135 52.5 130C47.8333 125 44.25 119.167 41.75 112.5C39.4167 105.833 38.25 98.5 38.25 90.5C38.25 82.5 39.4167 75.1667 41.75 68.5C44.25 61.8333 47.8333 56.0833 52.5 51.25C57.1667 46.25 62.5833 42.4167 68.75 39.75C74.9167 36.9167 81.6667 35.5 89 35.5C96.3333 35.5 103.083 36.9167 109.25 39.75C115.583 42.4167 121 46.25 125.5 51.25C127.926 53.8553 132.264 53.9219 134.575 51.2152C139.533 45.4108 145.168 40.2715 151.446 35.8269C154.812 33.4439 155.666 28.6662 152.75 25.75C144.75 17.5833 135.333 11.25 124.5 6.75C113.833 2.25 102 0 89 0C76.1667 0 64.3333 2.25 53.5 6.75C42.6667 11.25 33.1667 17.5833 25 25.75C17 33.9167 10.8333 43.5 6.5 54.5C2.16667 65.3333 0 77.3333 0 90.5C0 103.5 2.16667 115.583 6.5 126.75C10.8333 137.75 17 147.333 25 155.5C33.1667 163.5 42.6667 169.75 53.5 174.25Z" fill="#3E63DD"/>
</svg>
