<svg width="1000" height="1000" viewBox="0 0 1000 1000" fill="none" xmlns="http://www.w3.org/2000/svg">
<rect width="1000" height="1000" rx="500" fill="#3E63DD"/>
<path fill-rule="evenodd" clip-rule="evenodd" d="M471.014 398.591L452.678 186.522C451.082 168.06 464.157 151.359 482.664 150.433C494.214 149.856 505.786 149.856 517.336 150.433C535.843 151.359 548.919 168.06 547.323 186.522L528.975 398.717C528.271 406.859 533.015 414.492 540.628 417.464C548.241 420.436 556.902 418.037 561.901 411.571L688.856 247.363C700.567 232.216 722.417 229.165 736.505 242.129C744.08 249.1 751.342 256.403 758.27 264.017C771.108 278.126 768.016 299.87 752.927 311.54L588.849 438.445C582.384 443.445 579.987 452.106 582.96 459.718C585.934 467.331 593.567 472.074 601.709 471.368L813.465 453.019C831.933 451.419 848.639 464.5 849.565 483.014C850.145 494.602 850.145 506.212 849.565 517.8C848.639 536.314 831.933 549.396 813.465 547.796L601.583 529.434C593.444 528.729 585.813 533.469 582.837 541.077C579.861 548.685 582.252 557.344 588.71 562.348L752.818 689.506C767.928 701.215 770.975 723.021 758.052 737.107C751.092 744.692 743.8 751.965 736.197 758.904C722.084 771.783 700.298 768.687 688.625 753.561L561.922 589.382C556.917 582.896 548.23 580.496 540.604 583.491C532.979 586.486 528.248 594.157 528.995 602.316L548.255 812.712C549.942 831.136 537 847.881 518.542 849.144C506.685 849.955 494.815 850.202 483.018 849.832C464.372 849.248 451.105 832.491 452.712 813.906L471.016 602.201C471.72 594.06 466.976 586.428 459.364 583.456C451.753 580.483 443.092 582.88 438.092 589.344L311.148 753.465C299.436 768.607 277.59 771.655 263.503 758.693C255.926 751.72 248.661 744.415 241.73 736.797C228.892 722.689 231.985 700.945 247.073 689.275L411.151 562.369C417.616 557.37 420.013 548.708 417.04 541.096C414.066 533.484 406.433 528.74 398.291 529.446L186.535 547.796C168.067 549.396 151.361 536.314 150.435 517.801C149.855 506.212 149.855 494.602 150.435 483.014C151.361 464.5 168.067 451.419 186.535 453.019L398.417 471.38C406.556 472.085 414.188 467.346 417.163 459.738C420.139 452.129 417.748 443.47 411.291 438.466L247.182 311.308C232.072 299.6 229.025 277.793 241.948 263.708C248.908 256.122 256.2 248.849 263.803 241.911C277.916 229.032 299.702 232.128 311.375 247.253L438.078 411.432C443.073 417.905 451.736 420.31 459.353 417.341C466.97 414.371 471.718 406.736 471.014 398.591Z" fill="#FCFCFD"/>
</svg>
